<?xml version="1.0" encoding="UTF-8" standalone="no"?>
<svg
   xmlns:dc="http://purl.org/dc/elements/1.1/"
   xmlns:cc="http://creativecommons.org/ns#"
   xmlns:rdf="http://www.w3.org/1999/02/22-rdf-syntax-ns#"
   xmlns:svg="http://www.w3.org/2000/svg"
   xmlns="http://www.w3.org/2000/svg"
   xmlns:sodipodi="http://sodipodi.sourceforge.net/DTD/sodipodi-0.dtd"
   xmlns:inkscape="http://www.inkscape.org/namespaces/inkscape"
   id="svg8"
   version="1.1"
   viewBox="0 0 63.5 63.500002"
   height="240"
   width="240"
   sodipodi:docname="firewall.svg"
   inkscape:version="0.92.3 (2405546, 2018-03-11)">
  <sodipodi:namedview
     pagecolor="#000000"
     bordercolor="#666666"
     borderopacity="1"
     objecttolerance="10"
     gridtolerance="10"
     guidetolerance="10"
     inkscape:pageopacity="0"
     inkscape:pageshadow="2"
     inkscape:window-width="3840"
     inkscape:window-height="2035"
     id="namedview10"
     showgrid="false"
     inkscape:pagecheckerboard="false"
     inkscape:zoom="1.3906433"
     inkscape:cx="492.72902"
     inkscape:cy="223.10675"
     inkscape:window-x="-13"
     inkscape:window-y="-13"
     inkscape:window-maximized="1"
     inkscape:current-layer="svg8" />
  <defs
     id="defs2" />
  <metadata
     id="metadata5">
    <rdf:RDF>
      <cc:Work
         rdf:about="">
        <dc:format>image/svg+xml</dc:format>
        <dc:type
           rdf:resource="http://purl.org/dc/dcmitype/StillImage" />
        <dc:title />
      </cc:Work>
    </rdf:RDF>
  </metadata>
  <rect
     style="fill:#ffffff;stroke-width:0.16207519"
     id="rect4520"
     width="21.166668"
     height="10.583334"
     x="3.4395833"
     y="37.041672" />
  <rect
     style="fill:#ffffff;stroke-width:0.16207519"
     id="rect4520-7"
     width="21.166668"
     height="10.583334"
     x="28.045834"
     y="37.041672" />
  <rect
     style="fill:#ffffff;stroke-width:0.09568162"
     id="rect4520-7-8"
     width="7.3769431"
     height="10.583334"
     x="52.652084"
     y="37.041672" />
  <rect
     style="fill:#ffffff;stroke-width:0.16207519"
     id="rect4520-9"
     width="21.166668"
     height="10.583334"
     x="-60.029026"
     y="49.477089"
     transform="scale(-1,1)" />
  <rect
     style="fill:#ffffff;stroke-width:0.16207519"
     id="rect4520-7-0"
     width="21.166668"
     height="10.583334"
     x="-35.422775"
     y="49.477089"
     transform="scale(-1,1)" />
  <rect
     style="fill:#ffffff;stroke-width:0.09568162"
     id="rect4520-7-8-1"
     width="7.3769431"
     height="10.583334"
     x="-10.816526"
     y="49.477089"
     transform="scale(-1,1)" />
  <rect
     style="fill:#ffffff;stroke-width:0.16207519"
     id="rect4520-9-4"
     width="21.166668"
     height="10.583334"
     x="-60.029022"
     y="24.606251"
     transform="scale(-1,1)" />
  <rect
     style="fill:#ffffff;stroke-width:0.16207519"
     id="rect4520-7-0-2"
     width="21.166668"
     height="10.583334"
     x="-35.422779"
     y="24.606251"
     transform="scale(-1,1)" />
  <rect
     style="fill:#ffffff;stroke-width:0.09568162"
     id="rect4520-7-8-1-4"
     width="7.3769431"
     height="10.583334"
     x="-10.816526"
     y="24.606251"
     transform="scale(-1,1)" />
  <path
     style="fill:#ffffff;stroke:none;stroke-width:0.30538604px;stroke-linecap:butt;stroke-linejoin:miter;stroke-opacity:1"
     d="m 16.743811,22.754168 c 3.770546,-4.022556 5.349429,-8.690301 6.689841,-13.5759095 2.1886,2.0894545 2.81865,2.8786205 4.124774,5.0638385 2.407179,-1.884471 3.27543,-5.7878233 3.722429,-12.5883201 3.147075,4.2679074 5.405915,9.2246431 5.818717,15.0117291 2.247134,-1.131498 2.686153,-3.394429 3.666465,-5.534052 3.01474,3.950321 4.826344,6.958234 5.990153,11.622714 H 34.622846 c -0.278028,-2.507127 -1.445342,-3.997928 -2.587455,-5.51753 -0.750781,2.075531 -2.127293,4.068016 -4.004903,5.51753 z"
     id="path925"
     inkscape:connector-curvature="0"
     sodipodi:nodetypes="ccccccccccc" />
</svg>
